<svg id="Layer_1" enable-background="new 0 0 24 24" viewBox="0 0 24 24" xmlns="http://www.w3.org/2000/svg" xmlns:xlink="http://www.w3.org/1999/xlink"><linearGradient id="SVGID_1_" gradientUnits="userSpaceOnUse" x1="0" x2="24" y1="12" y2="12"><stop offset="0" stop-color="#95dcf6"/><stop offset="1" stop-color="#507eff"/></linearGradient><radialGradient id="SVGID_2_" cx="12.333" cy="19.75" gradientUnits="userSpaceOnUse" r="10.198"><stop offset="0" stop-color="#009ada"/><stop offset="1" stop-color="#1e88e5" stop-opacity="0"/></radialGradient><linearGradient id="SVGID_3_" gradientUnits="userSpaceOnUse" x1="14.944" x2="23.556" y1="13.242" y2="17.258"><stop offset="0" stop-color="#fff" stop-opacity=".06"/><stop offset="1" stop-color="#fff" stop-opacity="0"/></linearGradient><linearGradient id="SVGID_4_" gradientUnits="userSpaceOnUse" x1="8.594" x2="1.344" y1="12.563" y2="17.48"><stop offset="0" stop-color="#fff" stop-opacity="0"/><stop offset="1" stop-color="#fff" stop-opacity=".06"/></linearGradient><linearGradient id="SVGID_5_" gradientUnits="userSpaceOnUse" x1="14" x2="14" y1="4" y2="17"><stop offset="0" stop-color="#00accd" stop-opacity=".2"/><stop offset=".1274437" stop-color="#1ab4d2" stop-opacity=".175"/><stop offset=".4001057" stop-color="#5ccadf" stop-opacity=".12"/><stop offset=".7929201" stop-color="#c5ecf4" stop-opacity=".041"/><stop offset="1" stop-color="#fff" stop-opacity="0"/></linearGradient><linearGradient id="SVGID_6_" gradientUnits="userSpaceOnUse" x1="2.457" x2="23.088" y1="8.638" y2="18.259"><stop offset="0" stop-color="#fff" stop-opacity=".1"/><stop offset="1" stop-color="#fff" stop-opacity="0"/></linearGradient><g><path d="m20.4970703 10.6772461c.0019531-.0585938.0029297-.1176758.0029297-.1772461 0-3.5839844-2.9160156-6.5-6.5-6.5-2.3662109 0-4.5400391 1.2973633-5.6796875 3.347168-.4912109-.2280274-1.0253906-.347168-1.5703125-.347168-1.9355469 0-3.5341797 1.4746094-3.7246094 3.4257812-1.8222656.7856446-3.0253906 2.5839844-3.0253906 4.5742188 0 2.7568359 2.2431641 5 5 5h14.25c2.6191406 0 4.75-2.1308594 4.75-4.75 0-2.1616211-1.4482422-4.0180664-3.5029297-4.5727539z" fill="url(#SVGID_1_)"/><path d="m20.4970703 10.6772461c.0019531-.0585938.0029297-.1176758.0029297-.1772461 0-3.5839844-2.9160156-6.5-6.5-6.5-2.3662109 0-4.5400391 1.2973633-5.6796875 3.347168-.4912109-.2280274-1.0253906-.347168-1.5703125-.347168-1.9355469 0-3.5341797 1.4746094-3.7246094 3.4257812-1.8222656.7856446-3.0253906 2.5839844-3.0253906 4.5742188 0 2.7568359 2.2431641 5 5 5h14.25c2.6191406 0 4.75-2.1308594 4.75-4.75 0-2.1616211-1.4482422-4.0180664-3.5029297-4.5727539z" fill="url(#SVGID_2_)"/><circle cx="19.25" cy="15.25" fill="url(#SVGID_3_)" r="4.75"/><circle cx="5" cy="15" fill="url(#SVGID_4_)" r="5"/><circle cx="6.75" cy="10.75" fill="#56c7da" opacity=".2" r="3.75"/><circle cx="14" cy="10.5" fill="url(#SVGID_5_)" r="6.5"/><path d="m20.4970703 10.6772461c.0019531-.0585938.0029297-.1176758.0029297-.1772461 0-3.5839844-2.9160156-6.5-6.5-6.5-2.3662109 0-4.5400391 1.2973633-5.6796875 3.347168-.4912109-.2280274-1.0253906-.347168-1.5703125-.347168-1.9355469 0-3.5341797 1.4746094-3.7246094 3.4257812-1.8222656.7856446-3.0253906 2.5839844-3.0253906 4.5742188 0 2.7568359 2.2431641 5 5 5h14.25c2.6191406 0 4.75-2.1308594 4.75-4.75 0-2.1616211-1.4482422-4.0180664-3.5029297-4.5727539z" fill="url(#SVGID_6_)"/></g><g/><g/><g/><g/><g/><g/><g/><g/><g/><g/><g/><g/><g/><g/><g/></svg>