<svg id="Icons" viewBox="0 0 60 60" xmlns="http://www.w3.org/2000/svg"><path d="m59 22v-8c0-2.209-1.791-4-4-4h-26.528c-1.515 0-2.9-.856-3.578-2.211l-.789-1.578c-.678-1.355-2.063-2.211-3.578-2.211h-15.527c-2.209 0-4 1.791-4 4v20s57 0 57 0z" fill="#69adfe"/><path d="m54 27v-11c0-1.105-.895-2-2-2h-44c-1.105 0-2 .895-2 2v11z" fill="#e8ecef"/><path d="m59 22v30c0 2.209-1.791 4-4 4h-50c-2.209 0-4-1.791-4-4v-24c0-2.209 1.791-4 4-4h26.528c1.515 0 2.9-.856 3.578-2.211l.789-1.578c.678-1.355 2.063-2.211 3.578-2.211h15.528c2.209 0 4 1.791 4 4z" fill="#8dd1fe"/></svg>