<svg id="Layer_1" viewBox="0 0 64 64" xmlns="http://www.w3.org/2000/svg" data-name="Layer 1"><path d="m10.5 55a4 4 0 0 0 4 4h35a4 4 0 0 0 4-4v-33h-43z" fill="#f4f2f2"/><path d="m49.5 5h-28v7.67c0 1.84-1.91 3.33-3.75 3.33h-6.25a4.35 4.35 0 0 0 -1 0v6h43v-13a4 4 0 0 0 -4-4z" fill="#5f85ff"/><path d="m11.5 16h6.25c1.84 0 3.75-1.49 3.75-3.33v-7.67l-11 11a4.35 4.35 0 0 1 1 0z" fill="#a1b9f7"/><path d="m28 10.06v4.78a2.28 2.28 0 0 1 -.62 1.71 2.34 2.34 0 0 1 -1.69.6 2.5 2.5 0 0 1 -1.78-.63 2.35 2.35 0 0 1 -.67-1.79h1.7a1.05 1.05 0 0 0 .18.67.63.63 0 0 0 .52.22.57.57 0 0 0 .48-.2.82.82 0 0 0 .17-.58v-4.78z" fill="#fff"/><path d="m30.49 16.9a2.18 2.18 0 0 1 -1-.74 2 2 0 0 1 -.36-1.16h1.87a.94.94 0 0 0 .27.6.92.92 0 0 0 .6.2 1 1 0 0 0 .6-.17.59.59 0 0 0 .22-.49.61.61 0 0 0 -.17-.43 1.68 1.68 0 0 0 -.43-.28c-.17-.07-.42-.15-.73-.25a8.23 8.23 0 0 1 -1.11-.42 2.07 2.07 0 0 1 -.74-.62 1.76 1.76 0 0 1 -.31-1.07 1.84 1.84 0 0 1 .71-1.53 3.37 3.37 0 0 1 3.72 0 2 2 0 0 1 .76 1.54h-1.9a.69.69 0 0 0 -.25-.53.88.88 0 0 0 -.59-.2.76.76 0 0 0 -.5.17.62.62 0 0 0 -.15.48.58.58 0 0 0 .32.53 4.89 4.89 0 0 0 1 .41 10.68 10.68 0 0 1 1.11.44 2.13 2.13 0 0 1 .73.61 1.62 1.62 0 0 1 .31 1 2 2 0 0 1 -.3 1.09 2.13 2.13 0 0 1 -.89.78 2.92 2.92 0 0 1 -1.37.29 3.57 3.57 0 0 1 -1.42-.25z" fill="#fff"/><path d="m37 16.69a3.36 3.36 0 0 1 -1.31-1.28 3.76 3.76 0 0 1 0-3.71 3.5 3.5 0 0 1 1.31-1.28 3.72 3.72 0 0 1 1.8-.42 3.76 3.76 0 0 1 1.82.46 3.47 3.47 0 0 1 1.3 1.28 3.71 3.71 0 0 1 .47 1.85 3.63 3.63 0 0 1 -.48 1.86 3.33 3.33 0 0 1 -1.3 1.28 3.79 3.79 0 0 1 -3.62 0zm3.15-1.69a2.14 2.14 0 0 0 .5-1.48 2.14 2.14 0 0 0 -.5-1.48 1.92 1.92 0 0 0 -2.7 0 2.12 2.12 0 0 0 -.51 1.49 2.12 2.12 0 0 0 .51 1.47 1.92 1.92 0 0 0 2.7 0z" fill="#fff"/><path d="m49.62 17.08h-1.71l-2.86-4.33v4.33h-1.71v-7h1.71l2.86 4.35v-4.37h1.71z" fill="#fff"/><g fill="#5f85ff"><path d="m27.25 42.07h1.29a.52.52 0 0 1 .52.52v1.25a.52.52 0 0 1 -.52.52h-1.29a.52.52 0 0 1 -.52-.52v-1.25a.52.52 0 0 1 .52-.52z"/><path d="m31.35 42.07h1.3a.51.51 0 0 1 .51.51v1.27a.51.51 0 0 1 -.51.51h-1.3a.51.51 0 0 1 -.51-.51v-1.27a.51.51 0 0 1 .51-.51z"/><path d="m35.46 42.07h1.3a.51.51 0 0 1 .51.51v1.27a.51.51 0 0 1 -.51.51h-1.31a.51.51 0 0 1 -.51-.51v-1.27a.51.51 0 0 1 .52-.51z"/><path d="m22.11 40.34a3.44 3.44 0 0 1 .93.83 2.86 2.86 0 0 1 .47 1.16 10.16 10.16 0 0 1 .13 1.82 12.19 12.19 0 0 0 0 1.22 1.45 1.45 0 0 0 .15.6.51.51 0 0 0 .27.27 3.18 3.18 0 0 0 .55.12.77.77 0 0 1 .52.31 1.1 1.1 0 0 1 .21.7q0 1-1.23 1a2.87 2.87 0 0 1 -1.36-.32 2.3 2.3 0 0 1 -.93-.9 2.8 2.8 0 0 1 -.33-1.34c0-.85 0-1.53-.05-2a6.28 6.28 0 0 0 -.08-1 1.87 1.87 0 0 0 -.37-.85 2.91 2.91 0 0 0 -.64-.53 2.3 2.3 0 0 1 -.57-.44 1 1 0 0 1 -.17-.63 1 1 0 0 1 .49-.93 4.62 4.62 0 0 0 .86-.64 1.43 1.43 0 0 0 .36-.68 4.08 4.08 0 0 0 .12-.9c0-.33 0-1.11.05-2.36a2.45 2.45 0 0 1 2.62-2.54c.82 0 1.23.34 1.23 1a1.15 1.15 0 0 1 -.2.71.74.74 0 0 1 -.53.3 1.69 1.69 0 0 0 -.68.21.67.67 0 0 0 -.25.51 12.79 12.79 0 0 0 -.08 1.5 11.7 11.7 0 0 1 -.13 1.77 2.78 2.78 0 0 1 -.44 1.17 3.05 3.05 0 0 1 -.92.86z"/><path d="m40.93 39.46a2.78 2.78 0 0 1 -.44-1.17 11.7 11.7 0 0 1 -.13-1.77 12.79 12.79 0 0 0 -.08-1.5.67.67 0 0 0 -.25-.51 1.69 1.69 0 0 0 -.68-.21.74.74 0 0 1 -.53-.3 1.15 1.15 0 0 1 -.2-.71c0-.66.41-1 1.23-1a2.45 2.45 0 0 1 2.62 2.54c0 1.25 0 2 .05 2.36a4.08 4.08 0 0 0 .12.9 1.43 1.43 0 0 0 .36.68 4.62 4.62 0 0 0 .86.64 1 1 0 0 1 .49.93 1 1 0 0 1 -.17.63 2.3 2.3 0 0 1 -.57.44 2.91 2.91 0 0 0 -.64.53 1.87 1.87 0 0 0 -.37.85 6.28 6.28 0 0 0 -.08 1c0 .51 0 1.19-.05 2a2.8 2.8 0 0 1 -.33 1.34 2.3 2.3 0 0 1 -.93.9 2.87 2.87 0 0 1 -1.36.32q-1.23 0-1.23-1a1.1 1.1 0 0 1 .21-.7.77.77 0 0 1 .52-.31 3.18 3.18 0 0 0 .55-.12.51.51 0 0 0 .27-.27 1.45 1.45 0 0 0 .15-.6 12.19 12.19 0 0 0 0-1.22 10.16 10.16 0 0 1 .13-1.82 2.86 2.86 0 0 1 .55-1.14 3.44 3.44 0 0 1 .93-.83 3.05 3.05 0 0 1 -1-.88z"/></g></svg>