<svg id="flat_color" height="512" viewBox="0 0 512 512" width="512" xmlns="http://www.w3.org/2000/svg" data-name="flat color"><path d="m366.85 0h-247.61a26.49 26.49 0 0 0 -26.49 26.48v459a26.49 26.49 0 0 0 26.49 26.52h366.28a26.49 26.49 0 0 0 26.48-26.48v-348.64a26.49 26.49 0 0 0 -8.44-19.39l-118.67-110.39a26.47 26.47 0 0 0 -18.04-7.1z" fill="#d2dae2"/><path d="m384.47 218.49h-291.72v169.13h291.72a26.49 26.49 0 0 0 26.53-26.48v-116.14a26.49 26.49 0 0 0 -26.53-26.51z" fill="#bac5ce"/><path d="m512 136.88a26.49 26.49 0 0 0 -8.44-19.39l-98.23-91.38c-.8.55-1.6 1.12-2.39 1.71v96.74a26.49 26.49 0 0 0 26.49 26.44h82.57z" fill="#bac5ce"/><path d="m509.35 125.35h-105.61a26.49 26.49 0 0 1 -26.48-26.48v-96.73a26.42 26.42 0 0 1 7.64 5l118.66 110.35a26.47 26.47 0 0 1 5.79 7.86z" fill="#808e9b"/><rect fill="#eb3b5a" height="169.13" rx="26.48" width="385.26" y="192.8"/><g fill="#f1f2f6"><path d="m285.63 288.92a27.12 27.12 0 0 0 -6.24-53.52h-31.1a7.06 7.06 0 0 0 -7.06 7.06v69.81a7.06 7.06 0 0 0 14.12 0v-22.6h10.82l28.36 27.65a7.06 7.06 0 1 0 9.86-10.11zm-30.28-13.38v-26h24a13 13 0 1 1 0 26z"/><path d="m122.19 288.92a27.12 27.12 0 0 0 -6.19-53.52h-31.14a7.07 7.07 0 0 0 -7.07 7.06v69.81a7.07 7.07 0 0 0 14.13 0v-22.6h10.82l28.36 27.65a7.06 7.06 0 0 0 9.9-10.11zm-30.27-13.38v-26h24a13 13 0 1 1 0 26z"/><path d="m223.91 309.83-25.59-69.83a7.06 7.06 0 0 0 -13.26 0l-25.59 69.8a7.06 7.06 0 1 0 13.26 4.87l7.33-20h23.26l7.33 20a7.06 7.06 0 0 0 6.63 4.63 7.16 7.16 0 0 0 2.43-.43 7.08 7.08 0 0 0 4.2-9.04zm-38.67-29.24 6.45-17.59 6.45 17.61z"/></g></svg>